<?xml version="1.0" encoding="utf-8"?>
<!-- Generator: Adobe Illustrator 23.0.0, SVG Export Plug-In . SVG Version: 6.00 Build 0)  -->
<svg version="1.1" id="Layer_1" xmlns="http://www.w3.org/2000/svg" xmlns:xlink="http://www.w3.org/1999/xlink" x="0px" y="0px"
	 viewBox="0 0 100 100" style="enable-background:new 0 0 100 100;" xml:space="preserve">
<style type="text/css">
	.st0{fill:#FFFFFF;}
</style>
<g>
	<path class="st0" d="M23.44,11.12h57.82c2.59,0,4.69-2.1,4.69-4.69c0-2.59-2.1-4.69-4.69-4.69H14.06v91.83
		c0,2.59,2.1,4.69,4.69,4.69c2.59,0,4.69-2.1,4.69-4.69V59.2v-9.38V11.12z"/>
	<path class="st0" d="M81.25,19.73H32.05v30.1h-5.98v9.38h5.98v34.36c0,2.59,2.09,4.69,4.69,4.69c0.64,0,1.25-0.13,1.8-0.38h0.02
		c1.69-0.7,2.88-2.38,2.88-4.31V59.2h0.01v-9.38h-0.01V29.1h39.82c2.59,0,4.69-2.09,4.69-4.69C85.93,21.82,83.84,19.73,81.25,19.73z
		"/>
	<path class="st0" d="M60.18,49.82H44.08v9.38h16.11c2.59,0,4.69-2.11,4.69-4.69C64.87,51.92,62.78,49.82,60.18,49.82z"/>
</g>
</svg>
